<svg xmlns="http://www.w3.org/2000/svg" viewBox="0 0 600 400" width="100%" height="100%" fill="none">
  <rect width="600" height="400" fill="#f7f7f7" rx="8"/>
  <text x="300" y="36" text-anchor="middle" font-family="Inter, sans-serif" font-size="16" font-weight="600" fill="#1a1a1a">ASME B16.9 EQUAL & REDUCING TEE SCHEMATIC</text>
  <text x="300" y="58" text-anchor="middle" font-family="Inter, sans-serif" font-size="12" fill="#636363">Run Center-to-End (C) & Branch Center-to-End (M)</text>

  <!-- Tee Profile -->
  <path d="M 120 220 L 250 220 L 250 110 L 350 110 L 350 220 L 480 220 L 480 300 L 120 300 Z" fill="#ffffff" stroke="#024ad8" stroke-width="2.5"/>

  <!-- Centerlines -->
  <line x1="80" y1="260" x2="520" y2="260" stroke="#ff5050" stroke-width="1.5" stroke-dasharray="6,4"/>
  <line x1="300" y1="80" x2="300" y2="330" stroke="#ff5050" stroke-width="1.5" stroke-dasharray="6,4"/>

  <!-- Run Dimension C (Left to Center) -->
  <line x1="120" y1="340" x2="300" y2="340" stroke="#024ad8" stroke-width="1.5"/>
  <polygon points="120,337 110,340 120,343" fill="#024ad8"/>
  <polygon points="300,337 310,340 300,343" fill="#024ad8"/>
  <text x="210" y="360" text-anchor="middle" font-family="Inter, sans-serif" font-size="13" font-weight="600" fill="#024ad8">C (Run C-to-E)</text>

  <!-- Run Dimension C (Center to Right) -->
  <line x1="300" y1="340" x2="480" y2="340" stroke="#024ad8" stroke-width="1.5"/>
  <polygon points="300,337 290,340 300,343" fill="#024ad8"/>
  <polygon points="480,337 490,340 480,343" fill="#024ad8"/>
  <text x="390" y="360" text-anchor="middle" font-family="Inter, sans-serif" font-size="13" font-weight="600" fill="#024ad8">C (Run C-to-E)</text>

  <!-- Branch Dimension M -->
  <line x1="380" y1="110" x2="380" y2="260" stroke="#1a1a1a" stroke-width="1.5"/>
  <polygon points="377,110 380,100 383,110" fill="#1a1a1a"/>
  <polygon points="377,260 380,270 383,260" fill="#1a1a1a"/>
  <text x="440" y="190" text-anchor="middle" font-family="Inter, sans-serif" font-size="13" font-weight="600" fill="#1a1a1a">M (Branch C-to-E)</text>

  <!-- Run OD -->
  <line x1="90" y1="220" x2="90" y2="300" stroke="#1a1a1a" stroke-width="1.5"/>
  <polygon points="87,220 90,210 93,220" fill="#1a1a1a"/>
  <polygon points="87,300 90,310 93,300" fill="#1a1a1a"/>
  <text x="65" y="265" text-anchor="middle" font-family="Inter, sans-serif" font-size="12" font-weight="600" fill="#1a1a1a">OD</text>
</svg>